# xmcd CD database file
#
# Track frame offsets:
#	150
#	18992
#	39387
#	59076
#	73683
#	93848
#	116677
#	132646
#	153841
#	172612
#	191093
#	207778
#	229611
#	240935
#	255418
#	272187
#	287524
#
# Disc length: 4056 seconds
#
# Revision: 3
# Processed by: cddbd v1.5.2PL0 Copyright (c) Steve Scherf et al.
# Submitted via: CDex 1.51
#
DISCID=e30fd611
DTITLE=Various Artist - La Collection en Or - TUBES DE L'ÉTÉ  [CD 1-2]
DYEAR=2009
DGENRE=Ambiance
TTITLE0=Chagrin D'Amour - Chacun fait (c'qui lui plait)   [1981]
TTITLE1=Gérard Blanc - Une autre histoire   [1987]
TTITLE2=Élégance - Vacances j'oublie tout   [1982]
TTITLE3=Boris - Miss Camping   [1996]
TTITLE4=Carlos - Big bisou   [1977]
TTITLE5=Finzi Kontini - Cha cha cha   [1985]
TTITLE6=Anti Funky - Let's Go Dancing  (Are You Ready)   [1996]
TTITLE7=Jakie Quartz - Mise au point   [1983]
TTITLE8=Mc Miker ''G'' and Deejay Sven - Celebration Rap   [1986]
TTITLE9=Amanda Lear - Follow Me   [1978]
TTITLE10=Chico and The Gypsies - Marina   [1996]
TTITLE11=Gloria Gaynor - I Will Survive   [1999]
TTITLE12=The Isley Brothers - Twist and Shout   [1962]
TTITLE13=Hervé Cristani - Il est libre Max   [1981]
TTITLE14=Début de Soirée - Refrain d'enfer   [1989]
TTITLE15=Les Calamites - Vélomoteur   [1987]
TTITLE16=Jean-Pierre Boze - Coeur Carnaval   [1984]
EXTD=YEAR: 2009
EXTT0=
EXTT1=
EXTT2=
EXTT3=
EXTT4=
EXTT5=
EXTT6=
EXTT7=
EXTT8=
EXTT9=
EXTT10=
EXTT11=
EXTT12=
EXTT13=
EXTT14=
EXTT15=
EXTT16=
PLAYORDER=
